<svg width="225" height="60" viewBox="0 0 225 60" fill="none" xmlns="http://www.w3.org/2000/svg">
<path d="M172.514 41.9311H168.001V32.4834L159.57 18.0684H164.958L170.206 27.8306H170.241L175.664 18.0684H180.911L172.514 32.4834V41.9311Z" fill="#2B3966"/>
<path d="M157.461 35.4581C157.461 37.5099 156.742 39.2072 155.309 40.5484C153.875 41.8896 151.91 42.5603 149.414 42.5603C146.569 42.5603 144.224 41.8481 142.382 40.4255V35.597H142.487C143.303 36.5535 144.306 37.2879 145.497 37.8021C146.684 38.3146 147.875 38.5717 149.065 38.5717C151.653 38.5717 152.948 37.6504 152.948 35.8078C152.948 34.944 152.587 34.2207 151.864 33.6379C151.14 33.0551 150.272 32.5537 149.256 32.1338C148.243 31.7138 147.222 31.2412 146.196 30.7175C145.169 30.1922 144.294 29.405 143.571 28.3544C142.848 27.3053 142.487 26.0216 142.487 24.5063C142.487 22.5232 143.123 20.8498 144.393 19.4847C145.664 18.1211 147.572 17.4377 150.114 17.4377C152.726 17.4377 154.895 18.1498 156.621 19.5725V24.4009H156.516C154.907 22.4178 152.901 21.4279 150.499 21.4279C149.379 21.4279 148.522 21.6594 147.927 22.1272C147.333 22.5934 147.036 23.2353 147.036 24.0512C147.036 24.7745 147.291 25.41 147.805 25.9577C148.318 26.507 148.959 26.9381 149.729 27.2526C150.499 27.5672 151.338 27.952 152.248 28.4071C153.158 28.8621 153.996 29.3411 154.768 29.8425C155.537 30.3439 156.177 31.0783 156.691 32.046C157.204 33.0136 157.461 34.152 157.461 35.4581Z" fill="#2B3966"/>
<path d="M138.905 41.9311H133.446L125.365 29.9287V29.7546L133.096 18.0684H138.45L130.577 29.7195V29.7898L138.905 41.9311Z" fill="#2B3966"/>
<path d="M124.909 41.9311H120.398V18.0684H124.909V41.9311Z" fill="#2B3966"/>
<path d="M112.977 20.8147C115.169 23.0661 116.264 26.127 116.264 29.999C116.264 33.871 115.169 36.9335 112.977 39.1848C110.784 41.4346 107.985 42.5603 104.58 42.5603C101.268 42.5603 98.5096 41.4346 96.3064 39.1848C94.1016 36.9335 93 33.871 93 29.999C93 26.127 94.1016 23.0661 96.3064 20.8147C98.5096 18.5634 101.315 17.4377 104.72 17.4377C108.031 17.4377 110.784 18.5634 112.977 20.8147ZM111.577 29.999C111.577 27.3868 110.935 25.3398 109.653 23.858C108.37 22.3779 106.725 21.637 104.72 21.637C102.691 21.637 101.018 22.3651 99.699 23.8245C98.3819 25.2823 97.7225 27.3405 97.7225 29.999C97.7225 32.6112 98.3643 34.6645 99.6479 36.1575C100.93 37.6504 102.574 38.396 104.58 38.396C106.609 38.396 108.283 37.6616 109.601 36.1926C110.918 34.7236 111.577 32.6591 111.577 29.999Z" fill="#2B3966"/>
<path d="M204.828 42.5603C201.515 42.5603 198.811 41.4458 196.711 39.2184C194.612 36.9909 193.563 33.9173 193.563 29.999C193.563 26.1733 194.641 23.1236 196.799 20.8498C198.956 18.5761 201.783 17.4377 205.283 17.4377C208.337 17.4377 211.054 18.2552 213.433 19.887V24.9949H213.294C211.265 22.7803 208.792 21.6721 205.877 21.6721C203.522 21.6721 201.667 22.4178 200.315 23.9107C198.962 25.4037 198.285 27.4794 198.285 30.1395C198.285 32.8683 198.897 34.9504 200.121 36.3842C201.346 37.8196 202.903 38.5366 204.793 38.5366C206.472 38.5366 207.836 38.0815 208.886 37.1714C209.935 36.2629 210.507 34.8514 210.599 32.9385H203.672V32.7629L205.283 28.704H215.253C215.299 29.3108 215.323 30.0453 215.323 30.9091C215.323 34.8035 214.356 37.7206 212.419 39.6559C210.483 41.5927 207.952 42.5603 204.828 42.5603Z" fill="#49A069"/>
<path fill-rule="evenodd" clip-rule="evenodd" d="M188.382 32.6863L187.129 28.1357C187.118 28.0957 187.105 28.0558 187.094 28.0159C186.431 25.541 186.364 22.9767 186.881 20.505C185.992 21.7967 185.33 23.2338 184.918 24.7666C183.968 28.3145 184.463 32.0667 186.299 35.2458C187.694 37.6648 189.762 39.5745 192.231 40.7688C190.234 38.4999 188.888 35.6977 188.382 32.6863ZM207.663 45.9597C204.703 46.5553 201.608 46.3221 198.748 45.2571L194.171 44.0644C194.131 44.0532 194.091 44.0436 194.051 44.0325C191.582 43.3714 189.327 42.1515 187.447 40.4718C188.119 41.8849 189.03 43.1734 190.149 44.2943C194.913 49.0573 202.291 49.6129 207.663 45.9597ZM214.811 42.5571L211.485 45.9277C211.457 45.9581 211.428 45.9868 211.399 46.0172C209.589 47.8278 207.401 49.1675 205.002 49.9562C206.565 50.0808 208.142 49.9355 209.673 49.5251C213.224 48.5751 216.221 46.2742 218.057 43.092C219.452 40.6762 220.073 37.9283 219.873 35.1915C218.907 38.0512 217.159 40.6139 214.811 42.5571ZM220.502 27.3118L221.757 31.864C221.768 31.9039 221.78 31.9438 221.791 31.9837C222.453 34.457 222.52 37.0213 222.003 39.493C222.892 38.2029 223.557 36.7642 223.967 35.2314C224.917 31.6851 224.422 27.9313 222.587 24.7522C221.19 22.3332 219.123 20.4252 216.653 19.2292C218.65 21.4998 219.996 24.3004 220.502 27.3118ZM201.221 14.0383C204.181 13.4428 207.278 13.6775 210.136 14.7409L214.713 15.9352C214.753 15.9448 214.795 15.9544 214.835 15.9656C217.305 16.6282 219.557 17.8465 221.438 19.5262C220.766 18.1147 219.854 16.8246 218.735 15.7053C213.971 10.9407 206.594 10.3851 201.221 14.0383ZM194.074 17.4425L197.399 14.0703C197.428 14.0415 197.457 14.0112 197.485 13.9825C199.297 12.1718 201.483 10.8306 203.883 10.0434C202.32 9.91884 200.742 10.0625 199.211 10.4729C195.662 11.4245 192.666 13.7238 190.828 16.906C189.433 19.3218 188.812 22.0698 189.011 24.8065C189.977 21.9468 191.725 19.3841 194.074 17.4425Z" fill="#49A069"/>
<path fill-rule="evenodd" clip-rule="evenodd" d="M41.6602 0L53.9029 17.632L41.6602 6.23419L29.4186 17.632L41.6602 0Z" fill="#49A069"/>
<path fill-rule="evenodd" clip-rule="evenodd" d="M37.3345 60H0L24.9114 24.1218L5.6898 57.0236L37.3345 60Z" fill="#49A069"/>
<path fill-rule="evenodd" clip-rule="evenodd" d="M45.9869 60H83.3215L58.4101 24.1218L77.6317 57.0236L45.9869 60Z" fill="#49A069"/>
<path fill-rule="evenodd" clip-rule="evenodd" d="M41.6602 53.7747C41.2937 53.8252 41.3318 54.1581 41.1311 54.6054C40.9764 54.9485 40.6772 55.314 40.5852 55.8285C40.4104 56.8207 40.5337 58.1883 40.1201 58.8621C39.0395 58.8621 37.9589 58.8621 36.8784 58.8621C36.8884 58.1345 37.1888 57.5863 37.1967 56.8599C37.2191 54.7927 36.8795 53.7882 36.9658 52.3723C37.0936 50.2827 37.6294 48.1964 37.9399 46.1336C38.0396 45.4666 38.3266 45.0989 38.3938 44.3893C38.4846 43.4442 38.1293 42.0384 37.6103 40.7716C37.237 39.858 36.7629 39.0172 36.3851 38.4723C36.0881 38.7022 35.457 38.9219 34.5334 38.8916C33.6288 38.8614 32.4395 38.5822 31.2827 38.4869C30.2739 38.4051 29.3861 38.6495 28.4176 38.5564C26.6533 38.3871 24.9775 37.8659 24.3319 37.6473C23.777 37.8838 23.0865 37.8692 22.3165 37.71C21.8042 37.7324 21.2931 37.7549 20.7808 37.7773C20.5409 37.7694 20.5645 37.5138 20.7449 37.46C21.181 37.4118 21.617 37.3636 22.0519 37.3165C21.4298 37.3042 20.8077 37.293 20.1856 37.2807C19.9121 37.2795 19.8919 36.8827 20.1542 36.8502C20.6878 36.821 21.2224 36.7908 21.7571 36.7605C21.7582 36.7325 21.7594 36.7044 21.7616 36.6764C21.1574 36.5778 20.5521 36.4791 19.948 36.3805C19.689 36.3334 19.763 36.0262 19.9569 36.0307C20.5914 36.0688 21.2258 36.1058 21.8603 36.1428C21.8703 36.098 21.8804 36.0531 21.8916 36.0083C21.459 35.7661 20.9747 35.598 20.458 35.4758C20.1452 35.3984 20.2741 35.0778 20.5297 35.0856C21.1597 35.1686 21.7683 35.3412 22.3613 35.5789C22.9319 35.6966 23.3253 35.6708 23.239 35.2516C22.9027 34.8614 22.7256 34.4679 22.9386 34.0655C23.0204 33.9993 23.0888 34.0049 23.1403 34.0834C23.3802 34.7392 23.7815 34.9287 24.1088 35.3031C24.3655 35.5968 24.546 35.9556 24.8015 36.2504C25.1221 36.3692 25.8227 36.6271 26.641 36.5946C27.3808 36.5654 28.2092 36.2527 29.1171 36.2291C29.886 36.2089 30.6438 36.4556 31.369 36.4589C31.8051 36.4601 32.194 36.2336 32.6749 36.1787C32.9787 36.1439 33.2925 36.1775 33.6131 36.1417C34.6455 36.0273 35.373 35.2303 36.3571 35.0016C37.1911 34.8065 37.8233 35.1607 38.4757 35.0868C38.9465 35.0329 39.2166 34.7179 39.5114 34.5049C39.8208 34.2818 40.1458 34.1518 40.249 33.7538C40.388 33.2157 40.2792 32.4142 40.3039 31.8974C39.8701 32.1171 39.4856 30.329 39.8701 30.2987C39.869 29.8929 39.7244 29.4905 39.7782 29.1541C39.8522 28.699 40.0842 28.3739 40.3252 28.0802C40.6783 27.6474 41.0919 27.301 41.6602 27.2853C42.2296 27.301 42.6433 27.6474 42.9963 28.0802C43.2373 28.3739 43.4694 28.699 43.5434 29.1541C43.5972 29.4905 43.4526 29.8929 43.4514 30.2987C43.8359 30.329 43.4514 32.1171 43.0176 31.8974C43.0423 32.4142 42.9336 33.2157 43.0726 33.7538C43.1757 34.1518 43.5008 34.2818 43.8101 34.5049C44.1049 34.7179 44.3751 35.0329 44.8459 35.0868C45.4982 35.1607 46.1304 34.8065 46.9644 35.0016C47.9475 35.2303 48.6761 36.0273 49.7084 36.1417C50.029 36.1775 50.3429 36.1439 50.6455 36.1787C51.1275 36.2336 51.5165 36.4601 51.9514 36.4589C52.6777 36.4556 53.4355 36.2089 54.2044 36.2291C55.1124 36.2527 55.9396 36.5654 56.6805 36.5946C57.4988 36.6271 58.1994 36.3692 58.52 36.2504C58.7756 35.9556 58.956 35.5968 59.2127 35.3031C59.54 34.9287 59.9413 34.7392 60.1812 34.0834C60.2327 34.0049 60.3 33.9993 60.3818 34.0655C60.5959 34.4679 60.4188 34.8614 60.0825 35.2516C59.9951 35.6708 60.3897 35.6966 60.9602 35.5789C61.5532 35.3412 62.1618 35.1686 62.7918 35.0856C63.0474 35.0778 63.1763 35.3984 62.8636 35.4758C62.3468 35.598 61.8626 35.7661 61.4299 36.0083C61.4411 36.0531 61.4512 36.098 61.4613 36.1428C62.0957 36.1058 62.7302 36.0688 63.3646 36.0307C63.5585 36.0262 63.6325 36.3334 63.3736 36.3805C62.7694 36.4791 62.1641 36.5778 61.5599 36.6764C61.561 36.7044 61.5633 36.7325 61.5644 36.7605C62.0991 36.7908 62.6338 36.821 63.1673 36.8502C63.4296 36.8827 63.4094 37.2795 63.1359 37.2807C62.5138 37.293 61.8917 37.3042 61.2685 37.3165C61.7045 37.3636 62.1406 37.4118 62.5766 37.46C62.7571 37.5138 62.7806 37.7694 62.5407 37.7773C62.0285 37.7549 61.5173 37.7324 61.0051 37.71C60.235 37.8692 59.5445 37.8838 58.9896 37.6473C58.344 37.8659 56.6682 38.3871 54.9039 38.5564C53.9354 38.6495 53.0465 38.4051 52.0388 38.4869C50.882 38.5822 49.6927 38.8614 48.7881 38.8916C47.8645 38.9219 47.2334 38.7022 46.9353 38.4723C46.5586 39.0172 46.0845 39.858 45.7112 40.7716C45.1922 42.0384 44.8369 43.4442 44.9277 44.3893C44.9949 45.0989 45.2819 45.4666 45.3817 46.1336C45.6922 48.1964 46.228 50.2827 46.3557 52.3723C46.4421 53.7882 46.1024 54.7927 46.1248 56.8599C46.1327 57.5863 46.4331 58.1345 46.4432 58.8621C45.3626 58.8621 44.282 58.8621 43.2015 58.8621C42.7879 58.1883 42.9112 56.8207 42.7363 55.8285C42.6444 55.314 42.3451 54.9485 42.1904 54.6054C41.9886 54.1581 42.0279 53.8252 41.6602 53.7747Z" fill="#2B3966"/>
<path fill-rule="evenodd" clip-rule="evenodd" d="M55.0137 56.7736L73.7174 55.0146L65.5874 41.099L70.1248 53.1357L55.0137 56.7736Z" fill="#2B3966"/>
<path fill-rule="evenodd" clip-rule="evenodd" d="M28.3078 56.7736L9.6041 55.0146L17.7341 41.099L13.1966 53.1357L28.3078 56.7736Z" fill="#2B3966"/>
<path fill-rule="evenodd" clip-rule="evenodd" d="M41.6601 12.5412L34.7104 15.938L41.6601 9.46729L48.611 15.938L41.6601 12.5412Z" fill="#2B3966"/>
<path d="M44.2054 20.2618L41.6606 16.1922L39.1158 20.2618L41.6606 24.3315L44.2054 20.2618Z" fill="#49A069"/>
</svg>
