<svg width="8" height="12" viewBox="0 0 8 12" fill="none" xmlns="http://www.w3.org/2000/svg">
<path d="M3.53758 6.00387L7.2831 2.25819C7.47341 2.06807 7.56835 1.83553 7.56835 1.56062C7.56835 1.28573 7.47339 1.05331 7.2831 0.863211L6.70517 0.285091C6.51515 0.0950485 6.28259 0 6.00779 0C5.73298 0 5.50053 0.0950485 5.31022 0.285091L0.285226 5.30244C0.0950755 5.49257 0 5.72507 0 6.00001C0 6.27496 0.0950485 6.50727 0.285226 6.69748L5.31019 11.7148C5.5005 11.905 5.73293 12 6.00776 12C6.28259 12 6.51513 11.905 6.70514 11.7148L7.28307 11.1368C7.47339 10.9468 7.56833 10.7156 7.56833 10.4431C7.56833 10.1709 7.47336 9.93709 7.28307 9.74186L3.53758 6.00387Z" fill="#262728"/>
</svg>
