<svg width="8" height="12" viewBox="0 0 8 12" fill="none" xmlns="http://www.w3.org/2000/svg">
<path d="M4.46242 6.00387L0.716899 2.25819C0.526587 2.06807 0.431646 1.83553 0.431646 1.56062C0.431646 1.28573 0.526614 1.05331 0.716899 0.863211L1.29483 0.285091C1.48485 0.0950485 1.71741 0 1.99221 0C2.26702 0 2.49947 0.0950485 2.68978 0.285091L7.71477 5.30244C7.90492 5.49257 8 5.72507 8 6.00001C8 6.27496 7.90495 6.50727 7.71477 6.69748L2.68981 11.7148C2.4995 11.905 2.26707 12 1.99224 12C1.71741 12 1.48487 11.905 1.29486 11.7148L0.716927 11.1368C0.526614 10.9468 0.431673 10.7156 0.431673 10.4431C0.431673 10.1709 0.526641 9.93709 0.716927 9.74186L4.46242 6.00387Z" fill="#262728"/>
</svg>
